<svg xmlns="http://www.w3.org/2000/svg" viewBox="0 0 1782.857 1073.81"><path fill="##000000" d="M3037.143-347.638H4820v1073.81H3037.143z" color="#000" overflow="visible" style="marker:none" transform="translate(-3037.143 347.638)"/><path fill="#000" d="M2932.531-347.625c20.615 57.49 48.868 113.928 49.875 176.063 2.053 49.398-9.375 97.853-23.531 144.812-18.087 63.337-37.42 128.665-30.344 195.281 7.218 70.138 43.456 135.715 95.938 182.094 60.55 55.506 137.025 89.189 213.25 117.469 82.856 31.146 168.632 60.023 238.906 115.187 47.77 37.203 85.377 85.23 121.844 133.344 39.66 51.019 83.39 100.35 139.187 133.906 79.16 49.716 171.156 73.338 262.094 91.032 86.382 17.142 172.956 33.68 260.063 46.718 67.435 9.344 138.464 12.2 203.28-11.906 30.013-10.738 56.86-28.546 83.813-45.094 19.297-11.359 43.14-19.849 65.219-11.281 19.576 7.37 32.538 24.964 48.906 37.25 10.38 9.424 21.799 19.025 27.063 32.344 5.178 20.39-1.437 42.211 2.718 62.781h50.5c-.049-.126-.115-.254-.156-.375-18.043-39.596-25.443-85.476-55.312-118.594-29.611-32.013-74.696-45.566-117.563-44.968-68.758-.667-135.409 20.075-203.375 26.375-76.223 7.54-153.941 3.035-228-16.72-124.861-32.07-236.736-99.254-342.562-171.062-86.78-59.648-172.026-121.774-257.375-183.562-76.113-55.94-151.979-112.873-222.344-175.938-74.111-66.93-142.364-142.964-188.563-232.406-39.652-76.979-60.993-162.61-67.874-248.844-4.724-49.017 1.367-146.816 3.124-233.906h-128.78z" color="#000" overflow="visible" style="marker:none" transform="translate(-3037.143 347.638)"/><path fill="#0c0c0c" d="M2620 352.362v-700h60.531c247.23 0 260.563.09 261.134 1.75.602 1.748 10.396 27.354 21.356 55.836 13.155 34.188 21.037 62.272 25.095 89.414 1.956 13.09 2.313 19.388 2.29 40.5-.049 43.428-4.911 69.793-27.298 148.01-20.216 70.63-26.245 101.369-27.755 141.49-2.105 55.974 13.279 110.813 43.99 156.818 34.417 51.553 84.75 93.47 155.08 129.153 33.708 17.101 61.627 28.733 132.077 55.027 74.012 27.623 97.43 37.35 132.446 55.01 51.737 26.095 91.251 54.714 128.555 93.11 21.27 21.895 35.34 38.787 73.474 88.22 51.773 67.111 85.743 100.75 133.525 132.225 53.262 35.085 116.104 60.256 202.222 81 54.258 13.07 248.43 49.648 312.659 58.899 82.643 11.903 137.992 11.06 188.759-2.877 30.695-8.426 51.102-18.156 91.36-43.562 15.873-10.016 32.478-18.238 42.5-21.042 10.465-2.928 24.549-3.59 34-1.599 9.874 2.08 21.901 8.188 30.21 15.341 49.22 42.375 55.246 48.726 59.959 63.205 1.878 5.77 2.1 8.405 1.814 21.572-.563 25.973-.505 73.875.279 78.25l.762 4.25H2620z" color="#000" overflow="visible" style="marker:none" transform="translate(-3037.143 347.638)"/><path fill="#0c0c0c" d="M3133.156-347.625c89.493 179.198 173.584 361.557 274.875 534.281 81.894 136.984 180.852 265.7 304.969 367.031 116.14 95.58 252.26 166.112 396.406 208.844 102.317 31.163 208.241 48.773 313.219 68.907 78.191 15.774 157.362 34.435 227.25 74.156 47.014 27.254 89.167 66.307 108.938 118 3.891 9.305 6.515 19.193 9.624 28.781H4820V934.437c-63.952-95.976-150.853-174.663-243.156-243-174.88-128.547-368.138-229.541-545.313-354.656-148.72-103.704-287.934-222.726-402.718-363.344-81.153-98.427-150.039-206.647-206.282-321.062h-289.375z" color="#000" overflow="visible" style="marker:none" transform="translate(-3037.143 347.638)"/><path fill="#000" d="M4732.106 1050.56c-2.127-3.973-9.751-23.904-17.291-45.198-12.821-36.209-21.26-52.1-35.802-67.411-21.201-22.324-48.923-35.262-86.037-40.154-16.891-2.226-54.828-1.484-76.976 1.506-15.33 2.07-21.89 3.155-78.5 12.988-31.801 5.524-56.653 9.022-83.5 11.754-25.072 2.551-92.256 2.548-116.5-.005-90.505-9.532-170.636-33.594-260.5-78.223-94.791-47.077-179.504-103.028-412.5-272.449-159.999-116.342-234.535-176.746-303.5-245.957-111.138-111.535-172.23-220.007-198.478-352.406-7.823-39.462-12.448-80.054-18.015-158.143-5.928-83.139-10.537-124.212-18.094-161.25l-.663-3.25h124.92l27.82 56.25c15.302 30.938 45.94 92.925 68.083 137.75 96.84 196.03 147.063 289.17 205.002 380.18C3603.629 465.388 3784.25 621.232 4015 712.678c89.392 35.426 173.974 58.185 315 84.76 23.375 4.404 55.55 10.494 71.5 13.533 113.022 21.534 177.261 40.378 233.5 68.496 70.906 35.451 117.499 82.243 139.624 140.22 2.915 7.64 9.37 29.62 9.374 31.925.001.413-11.457.75-25.463.75-23.505 0-25.539-.138-26.429-1.801z" color="#000" overflow="visible" style="marker:none" transform="translate(-3037.143 347.638)"/><path fill="#0c0c0c" d="M4811.637 951.11c-10.467-16.517-27.249-39.894-41.043-57.173-68.447-85.737-159.096-163.596-298.094-256.036-49.427-32.87-80.552-52.5-216.5-136.53-129.771-80.212-208.7-132.338-284.381-187.809-149.62-109.664-269.217-222.15-369.149-347.2-72.57-90.809-133.48-186.027-185.35-289.75l-12.128-24.25H4204.729l26.341 32.75c14.488 18.013 57.658 71.45 95.933 118.75 207.453 256.366 285.925 358.253 373.924 485.5 39.191 56.67 91.948 138.563 114.415 177.602l4.662 8.102-.252 244.226-.252 244.226-7.863-12.408z" color="#000" overflow="visible" style="marker:none" transform="translate(-3037.143 347.638)"/><path fill="#6c4049" d="M-100.005-271v-187.526l6.25 5.288c9.235 7.813 16.743 13.432 31.325 23.446 40.81 28.024 86.334 50.258 160.925 78.597 18.15 6.896 44.25 16.808 58 22.027 53.645 20.362 77.792 30.654 106.92 45.57 49.605 25.402 86.243 51.677 122.115 87.576 20.296 20.312 34.664 37.135 65.873 77.128 13.7 17.555 25.582 32.706 26.406 33.669 1.424 1.666-12.393 1.75-288.159 1.75h-289.655v-187.526z"/><path fill="#0c0c0c" d="M452.834-117.149c-32.774-41.9-46.893-58.445-67.304-78.873-35.872-35.899-72.51-62.174-122.115-87.576-29.128-14.916-53.275-25.208-106.92-45.57-13.75-5.22-39.85-15.131-58-22.027C37.292-374.448-1.763-392.448-38.43-414.302c-18.894-11.262-46.592-30.914-57.825-41.03l-3.75-3.376.116-309.134c.064-170.023.276-308.458.47-307.633.498 2.106 3.944 44.23 6.913 84.5 7.763 105.274 14.397 150.832 30.138 206.96 37.754 134.626 118.264 248.423 264.801 374.28 57.892 49.723 128.485 103.547 270.062 205.912 67.877 49.076 119.232 85.588 153.415 109.071l16.414 11.277h-163.15l-26.34-33.674z"/><path fill="#552d34" d="M625.91-94.752C562.579-138.26 418.366-242.26 338.495-302.025 200.231-405.482 119.962-478.276 55.727-558.46-8.493-638.627-48.654-720.471-70.39-815.475c-10.388-45.4-15.51-86.058-22.11-175.5-1.421-19.25-3.538-45.125-4.705-57.5-1.659-17.6-2.209-31.92-2.527-65.75l-.406-43.25H13.598l38.362 77.75C108.566-965 185.501-811.59 205.044-774.475c29.965 56.908 54.232 100.448 79.468 142.583 115.034 192.061 239.274 328.527 390.483 428.906 68.99 45.798 138.706 81.345 221.588 112.983l16.912 6.455-135.585.037-135.586.036-16.414-11.277z"/><path fill="#432329" d="M896.583-90.003c-42.586-16.256-75.086-30.554-112.588-49.53-164.998-83.489-302.05-204.808-422.53-374.026-32.848-46.136-69.296-103.736-102.256-161.598-32.664-57.344-59.754-108.862-111.644-212.318-36.847-73.465-133.57-268.704-133.57-269.617 0-.21 57.148-.383 126.996-.383h126.996l12.133 24.25C384.275-925.05 527.328-746.754 718.052-587.401c105.128 87.836 208.262 159.588 400.943 278.94 162.841 100.868 209.857 131.015 268 171.84 22.039 15.475 55.753 40.161 67.132 49.156l5.048 3.99-272.84-.036-272.84-.037-16.912-6.455z"/><path fill="#2f191c" d="M1434.44-102.24c-70.28-52.553-122.89-86.947-315.445-206.221-103.923-64.373-172.516-108.826-232-150.352-192.294-134.243-337.554-270.798-454.189-426.97-59.647-79.867-108.263-158.653-152.686-247.442l-12.133-24.25h799.771l2.73 3.579c1.5 1.968 42.587 52.93 91.3 113.25 220.083 272.51 288.587 360.256 364.331 466.67 54.947 77.196 113.767 166.361 148.21 224.671l8.666 14.671v251.159l-111.75-.014-111.75-.014-25.055-18.736z"/><path fill="#1c0e12" d="M1675.566-347.225c-32.062-54.848-94.249-149.201-149.447-226.75-76.045-106.837-146.775-197.393-369.052-472.5-46.882-58.025-86.133-106.738-87.224-108.25l-1.984-2.75h615.136v411c0 226.05-.126 411-.28 411-.154 0-3.372-5.288-7.15-11.75z"/></svg>
