<svg width="945" height="1104" viewBox="0 0 945 1104" fill="none" xmlns="http://www.w3.org/2000/svg">
<path d="M447.048 318.51C444.649 315.552 444.633 313.378 444.616 309.812C444.474 233.871 444.441 157.93 444.518 81.9888C444.534 65.1219 443.367 53.307 444.485 41.5721C444.539 40.9752 444.879 40.6342 445.503 40.5489C447.409 40.2931 449.261 40.1545 451.057 40.1332C464.618 40.0266 478.409 39.984 492.43 40.0053C492.954 40.0081 493.457 40.2035 493.84 40.5529C494.224 40.9024 494.459 41.3802 494.501 41.8919C494.632 43.5652 494.698 45.4731 494.698 47.6154C494.61 171.967 494.632 261.103 494.763 315.024C494.763 317.54 493.986 319.623 492.43 321.275C486.471 327.617 479.987 334.503 472.976 341.931C472.122 342.848 471.152 342.981 470.068 342.331C468.008 341.105 465.872 339.368 463.66 337.119C457.821 331.172 452.284 324.969 447.048 318.51ZM624.437 285.895C624.44 285.966 624.465 286.035 624.506 286.094C624.548 286.153 624.606 286.198 624.672 286.225C624.738 286.253 624.81 286.26 624.879 286.247C624.949 286.233 625.012 286.2 625.061 286.151C634.876 277.134 644.247 267.706 653.175 257.869C707.66 197.867 762.391 138.169 817.665 78.8552C817.881 78.6246 818.144 78.4398 818.437 78.3124C818.729 78.185 819.046 78.1177 819.367 78.1147C819.687 78.1117 820.005 78.1731 820.301 78.295C820.596 78.4169 820.862 78.5967 821.083 78.8233L852.219 110.607C853.249 111.651 853.26 112.701 852.252 113.756C808.464 159.689 765.907 206.756 722.99 253.456C712.441 264.924 701.887 276.382 691.327 287.829C678.095 302.176 665.24 316.831 652.764 331.795C652.107 332.573 650.776 333.661 648.771 335.057C629.207 348.636 609.78 362.401 590.49 376.353C570.658 390.71 550.136 404.827 529.975 419.359C529.336 419.816 528.553 420.041 527.763 419.994C526.973 419.947 526.227 419.632 525.654 419.104C513.944 408.296 502.891 396.908 492.496 384.938C492.162 384.548 491.963 384.065 491.927 383.557C491.892 383.049 492.022 382.542 492.299 382.108C493.986 379.486 495.831 376.955 497.836 374.514C518.325 349.622 539.916 325.16 559.502 299.644C559.788 299.265 559.926 298.797 559.89 298.326C559.854 297.854 559.646 297.409 559.304 297.07L531.963 270.227C531.602 269.875 531.366 269.46 531.257 268.98C530.643 266.422 530.337 264.445 530.337 263.049C530.315 211.792 530.298 159.587 530.287 106.434C530.287 105.485 530.775 105.011 531.75 105.011L583.211 105.027C583.379 105.027 583.545 105.059 583.699 105.121C583.854 105.183 583.994 105.274 584.112 105.389C584.23 105.503 584.322 105.639 584.385 105.788C584.448 105.937 584.479 106.097 584.477 106.258L584.132 229.634C584.132 231.35 584.718 231.612 585.89 230.418C596.57 219.642 609.649 204.646 616.616 197.084C661.845 148.002 707.358 99.1755 753.157 50.6051C756.191 47.3863 759.16 44.4925 762.063 41.9238C762.487 41.5449 763.047 41.3441 763.623 41.3651C764.198 41.386 764.742 41.627 765.135 42.0357C775.772 53.0032 786.381 63.6617 796.962 74.011C802.45 79.3988 799.049 81.765 794.678 86.4653C778.296 104.116 761.734 122.629 745.927 139.672C708.914 179.588 672.289 219.829 636.054 260.395C629.054 268.213 624.19 275.951 624.437 285.895Z" fill="#182E42"/>
<path d="M327.581 300.503C327.943 299.865 327.877 299.094 327.384 298.19C323.274 290.714 319.284 283.17 315.415 275.556C312.143 269.128 305.205 261.79 299.714 255.49C281.793 234.945 262.047 214.448 244.652 195.227C223.081 171.418 201.466 147.646 179.808 123.911C166.183 108.992 154.883 96.3162 145.906 85.8844C144.897 84.704 143.845 83.0557 142.749 80.9396C142.497 80.4611 142.53 80.0038 142.848 79.5678C144.196 77.7069 145.983 75.6545 148.208 73.4108C158.385 63.1065 168.447 51.7815 179.495 42.4024C179.815 42.1297 180.231 41.9862 180.658 42.001C181.085 42.0159 181.493 42.1878 181.797 42.4821C186.28 46.8845 190.653 51.4784 194.917 56.2636C207.993 70.9278 221.223 85.459 234.606 99.8573C274.383 142.669 313.617 185.731 352.309 229.043C354.435 231.425 355.493 231.037 355.482 227.879L355.022 106.573C355.022 106.124 355.205 105.694 355.532 105.377C355.859 105.06 356.302 104.882 356.765 104.882L408.785 104.818C409.019 104.818 409.252 104.863 409.468 104.951C409.685 105.038 409.881 105.167 410.046 105.328C410.211 105.49 410.342 105.682 410.43 105.892C410.518 106.103 410.563 106.329 410.56 106.557C410.144 160.513 410.029 214.368 410.215 268.123C410.226 269.93 409.448 271.728 407.88 273.514C400.383 282.074 393.149 290.72 386.178 299.45C385.953 299.729 385.829 300.071 385.826 300.424C385.823 300.776 385.941 301.118 386.162 301.396C394.02 311.429 403.704 322.515 410.511 330.905C460.613 392.624 510.37 454.609 559.781 516.86C562.543 520.337 565.289 523.825 568.018 527.324C611.998 583.63 649.353 629.776 694.681 679.957C748.104 739.093 801.999 798.111 856.364 857.012C856.782 857.472 857.009 858.065 857 858.676C856.991 859.287 856.746 859.871 856.315 860.314L826.441 890.955C825.082 892.359 823.734 892.348 822.397 890.923C755.103 819.065 689.124 746.823 622.965 674.343C615.654 666.346 608.628 658.19 601.887 649.874C558.301 596.247 515.455 542.094 472.034 488.372C431.052 437.659 390.168 386.627 349.383 335.276C349.263 335.126 349.113 335.001 348.942 334.91C348.77 334.82 348.581 334.764 348.386 334.748C348.192 334.731 347.996 334.754 347.811 334.815C347.625 334.875 347.455 334.973 347.311 335.1C339.419 342.129 332.092 349.796 325.329 358.101C324.671 358.91 324.079 359.51 323.553 359.904C323.224 360.148 322.814 360.265 322.401 360.232C321.988 360.2 321.602 360.02 321.317 359.728C296.096 333.601 271.911 306.883 247.019 280.644C196.282 227.166 145.752 173.502 95.4312 119.652C93.7323 117.823 92.3184 115.829 91.1894 113.671C90.8716 113.065 90.9537 112.517 91.436 112.028L122.494 80.6844C122.671 80.5077 122.884 80.369 123.12 80.2772C123.356 80.1854 123.608 80.1426 123.861 80.1517C124.114 80.1607 124.361 80.2213 124.588 80.3296C124.814 80.4379 125.013 80.5914 125.173 80.7801C128.407 84.5977 131.624 88.2663 134.824 91.7862C184.148 146.157 233.554 200.459 283.042 254.692C296.113 269 311.847 285.174 326.02 300.678C326.123 300.788 326.252 300.873 326.396 300.925C326.54 300.977 326.694 300.995 326.847 300.978C326.999 300.961 327.145 300.909 327.273 300.826C327.401 300.744 327.506 300.633 327.581 300.503Z" fill="#182E42"/>
<path d="M589.483 498.09C581.262 488.6 572.52 479.131 563.259 469.684C561.978 468.365 560.456 466.285 558.694 463.444C558.409 462.976 558.387 462.497 558.628 462.008C560.347 458.55 562.115 455.736 563.932 453.566C597.612 413.111 630.142 371.443 665.514 332.36C718.379 273.973 771.545 215.852 825.012 157.997C837.46 144.528 849.885 131.399 862.288 118.611C862.472 118.421 862.694 118.269 862.94 118.164C863.186 118.059 863.452 118.003 863.721 118C863.991 117.997 864.259 118.047 864.509 118.146C864.759 118.246 864.987 118.393 865.178 118.579L903.079 155.459C904.042 156.396 904.25 157.475 903.703 158.699C903.33 159.518 902.526 160.587 901.289 161.907C850.646 215.953 800.118 270.106 749.705 324.365C744.012 330.482 736.606 338.323 727.487 347.888C694.798 382.135 663.116 417.239 632.441 453.199C627.466 459.04 618.385 468.934 611.882 477.488C611.399 478.129 611.129 478.898 611.109 479.691C611.088 480.484 611.318 481.264 611.767 481.924C613.311 484.18 615.144 486.557 617.268 489.058C667.221 547.594 716.895 606.433 769.279 663.357C813.966 711.914 858.621 760.327 903.243 808.596C903.57 808.952 903.743 809.417 903.724 809.896C903.706 810.375 903.498 810.83 903.144 811.166C891.846 821.901 880.893 832.816 870.285 843.913C869.158 845.094 867.143 846.626 864.242 848.509C863.761 848.817 863.284 848.807 862.814 848.477C861.259 847.402 859.885 846.206 858.692 844.886C842.807 827.332 826.868 809.825 810.874 792.367C801.141 781.738 791.491 771.03 781.923 760.242C768.403 744.975 754.768 729.804 741.018 714.728C721.915 693.78 702.85 672.794 683.823 651.771C648.468 612.689 615.363 571.212 581.864 530.582C579.609 527.848 577.66 524.911 576.018 521.773C575.701 521.166 575.744 520.586 576.15 520.033L589.631 501.697C590.025 501.164 590.224 500.519 590.197 499.865C590.17 499.212 589.919 498.587 589.483 498.09ZM727.438 890.257C671.255 829.497 614.997 768.806 558.661 708.185C516.787 663.134 473.649 619.168 432.152 573.798C410.137 549.754 381.493 519.134 346.22 481.94C291.981 424.76 247.004 377.826 197.001 326.168C184.39 313.136 166.338 293.969 142.844 268.67C109.816 233.093 76.6561 197.627 43.365 162.274C42.7081 161.571 41.9965 160.603 41.2302 159.369C40.9346 158.901 40.9237 158.428 41.1974 157.949C42.2593 156.002 43.4142 154.438 44.6622 153.257C55.8067 142.661 66.9895 131.798 78.2107 120.67C78.358 120.523 78.5346 120.407 78.7296 120.329C78.9246 120.251 79.1335 120.214 79.3434 120.218C79.5532 120.223 79.7594 120.269 79.9488 120.355C80.1382 120.441 80.3068 120.565 80.4439 120.717C142.894 189.02 206.838 256.238 270.617 323.408C297.597 351.83 329.701 382.71 348.437 402.801C387.859 445.081 427.412 487.233 467.097 529.257C518.347 583.517 570.008 637.377 621.226 691.668C628.101 698.966 635.408 706.882 643.148 715.414C682.975 759.354 723.07 803.059 763.433 846.53C773.548 857.435 783.565 868.436 793.484 879.532C794.765 880.958 795.843 882.405 796.719 883.873C797.003 884.331 796.954 884.756 796.571 885.15L761.544 921.009C760.985 921.585 760.222 921.936 759.405 921.992C758.588 922.048 757.775 921.806 757.127 921.312C755.781 920.28 754.429 919.046 753.071 917.61C744.466 908.545 735.922 899.427 727.438 890.257ZM244.278 395.987L244.426 533.024C244.426 533.109 244.408 533.195 244.375 533.274C244.341 533.353 244.291 533.426 244.229 533.486L195.146 582.463C195.052 582.555 194.932 582.617 194.801 582.642C194.67 582.668 194.535 582.655 194.412 582.605C194.289 582.556 194.184 582.472 194.11 582.364C194.036 582.256 193.996 582.13 193.996 582V343.42C193.999 343.289 194.042 343.163 194.12 343.057C194.197 342.951 194.305 342.869 194.43 342.823C194.555 342.777 194.692 342.768 194.822 342.797C194.953 342.827 195.071 342.893 195.162 342.989L244.097 395.54C244.214 395.662 244.278 395.821 244.278 395.987Z" fill="#182E42"/>
<path d="M699.564 532.415L699.614 396.195C699.615 396.064 699.668 395.938 699.762 395.844L750.171 344.155C750.244 344.083 750.337 344.032 750.44 344.011C750.542 343.99 750.648 343.999 750.745 344.036C750.842 344.074 750.926 344.139 750.985 344.223C751.044 344.306 751.076 344.405 751.076 344.506L751.043 581.999C751.043 582.1 751.011 582.199 750.952 582.283C750.893 582.366 750.81 582.431 750.713 582.469C750.615 582.506 750.509 582.515 750.407 582.494C750.305 582.473 750.211 582.423 750.139 582.35L699.712 532.766C699.618 532.672 699.565 532.546 699.564 532.415ZM45.1088 802.576C56.428 791.288 69.2772 777.821 83.6565 762.175C151.55 688.294 197.534 637.61 221.609 610.123C259.696 566.63 285.97 532.622 318.858 494.406C319.242 493.96 319.67 493.912 320.142 494.263C321.644 495.389 323.048 496.638 324.353 498.009C335.157 509.318 346.224 520.585 357.554 531.809C357.8 532.051 357.944 532.374 357.956 532.714C357.968 533.053 357.848 533.385 357.62 533.643C343.389 549.634 327.249 570.265 316.588 582.94C242.553 671.011 164.273 755.782 86.947 841.143C84.9179 843.386 82.8668 845.538 80.7938 847.6C80.6922 847.702 80.57 847.783 80.4346 847.838C80.2991 847.893 80.1532 847.92 80.0057 847.919C79.8581 847.917 79.712 847.887 79.576 847.829C79.44 847.772 79.317 847.688 79.2144 847.584C67.7856 835.531 55.9948 823.696 43.842 812.078C42.6684 810.951 41.7636 809.676 41.1274 808.252C41.0173 808.005 40.9775 807.735 41.0122 807.468C41.0469 807.202 41.1549 806.949 41.3248 806.737C42.2791 805.525 43.5404 804.138 45.1088 802.576ZM89.6617 854.95C91.0656 853.387 92.4914 851.836 93.9392 850.295C143.987 796.773 192.455 741.911 241.187 687.289C276 648.26 310.385 609.198 343.076 568.463C349.92 559.928 356.945 551.547 364.152 543.32C364.368 543.072 364.673 542.912 365.008 542.871C365.342 542.829 365.682 542.91 365.961 543.097C366.981 543.799 367.979 544.649 368.956 545.648C379.968 556.904 390.837 567.9 401.564 578.635C401.89 578.966 402.081 579.399 402.103 579.854C402.124 580.308 401.973 580.754 401.679 581.106C379.469 607.429 357.028 632.492 334.932 658.272C325.642 669.124 317.449 678.419 310.353 686.157C247.686 754.523 185.43 823.286 122.27 891.237C122.106 891.416 121.905 891.56 121.68 891.66C121.455 891.76 121.212 891.814 120.965 891.819C120.717 891.823 120.472 891.778 120.244 891.686C120.015 891.594 119.809 891.458 119.638 891.285C109.679 881.134 99.7853 870.792 89.9578 860.259C88.2358 858.41 88.1371 856.64 89.6617 854.95ZM352.257 745.132C348.187 748.289 344.261 751.913 340.477 756.005C289.343 811.185 238.209 866.142 186.039 920.477C184.471 922.125 182.88 922.135 181.268 920.509L147.129 886.087C146.691 885.639 146.433 885.054 146.403 884.439C146.372 883.824 146.572 883.221 146.965 882.739C150.749 878.052 154.643 873.524 158.646 869.155C243.573 776.19 329.421 683.893 410.991 588.153C411.395 587.678 411.906 587.3 412.485 587.048C413.065 586.796 413.697 586.678 414.331 586.702C421.981 586.989 432.511 587.34 438.532 593.032C444.148 598.357 449.621 603.82 454.952 609.422C456.531 611.08 457.644 612.727 458.291 614.364C458.385 614.61 458.424 614.873 458.407 615.137C458.39 615.4 458.317 615.658 458.193 615.895C455.999 619.923 454.315 622.639 453.142 624.042C433.333 647.68 413.179 671.043 392.68 694.129C390.212 696.914 387.821 699.683 385.507 702.435C385.343 702.632 385.252 702.877 385.249 703.131C385.246 703.385 385.331 703.634 385.49 703.838C391.939 711.863 398.959 719.134 406.549 725.649C408.754 727.546 409.741 729.986 409.724 733.047C409.56 766.645 409.521 800.238 409.609 833.825C409.62 835.791 409.565 837.683 409.445 839.501C409.411 839.926 409.217 840.324 408.899 840.613C408.582 840.903 408.166 841.064 407.734 841.063H357.028C356.356 841.063 355.711 840.805 355.236 840.344C354.761 839.884 354.494 839.259 354.494 838.608L354.609 746.216C354.607 745.953 354.528 745.695 354.382 745.473C354.236 745.251 354.029 745.073 353.783 744.96C353.538 744.847 353.264 744.803 352.994 744.833C352.724 744.864 352.469 744.967 352.257 745.132ZM447.301 695.739C452.928 689.139 458.621 681.837 464.955 675.906C466.413 674.535 467.828 674.577 469.199 676.033L492.562 700.937C493.769 702.23 494.437 703.907 494.437 705.64L494.47 890.089C494.47 890.504 494.3 890.901 493.998 891.194C493.695 891.487 493.285 891.652 492.858 891.652L447.269 891.859C445.525 891.87 444.592 891.03 444.472 889.34C444.044 883.324 443.841 877.308 443.863 871.292C444.236 788.036 444.362 732.499 444.241 704.683C444.23 701.133 445.25 698.152 447.301 695.739ZM533.248 841.382C532.65 841.382 532.07 841.176 531.613 840.799C531.155 840.423 530.848 839.901 530.747 839.325C530.144 835.775 529.859 831.949 529.892 827.846C530.111 797.288 530.21 766.671 530.188 735.996C530.188 734.806 530.742 734.466 531.85 734.976C532.036 735.072 532.398 735.385 532.935 735.917C547.655 750.872 562.38 765.826 577.11 780.781C580.598 784.321 584.119 787.525 584.053 792.053C583.888 805.839 583.883 819.63 584.036 833.426C584.058 835.818 583.905 838.018 583.576 840.027C583.517 840.396 583.323 840.732 583.031 840.975C582.738 841.218 582.365 841.351 581.98 841.35L533.248 841.382ZM105.143 1018.86C105.538 1032.77 106.772 1048.53 104.765 1062.31C104.725 1062.61 104.573 1062.89 104.337 1063.09C104.101 1063.3 103.797 1063.41 103.482 1063.41L82.9491 1063.39C82.1594 1063.39 81.6987 1063.02 81.5671 1062.26C81.1832 1059.99 80.9858 1057.58 80.9749 1055.04C80.909 1028.48 80.9419 1001.71 81.0736 974.749C81.0722 974.129 81.3156 973.532 81.755 973.077C82.1943 972.621 82.7972 972.342 83.4427 972.293C89.382 971.879 104.123 970.029 107.759 975.817C114.757 987.009 121.957 997.835 129.361 1008.29C129.898 1009.07 130.447 1009.07 131.006 1008.31L156.129 973.68C156.52 973.138 157.04 972.696 157.645 972.391C158.249 972.085 158.92 971.926 159.6 971.927L177.599 971.879C177.851 971.879 178.101 971.927 178.333 972.021C178.566 972.115 178.777 972.253 178.954 972.426C179.132 972.6 179.272 972.805 179.367 973.031C179.462 973.258 179.51 973.5 179.508 973.744C179.244 1001.2 179.244 1028.56 179.508 1055.84C179.529 1058.33 179.305 1060.66 178.833 1062.82C178.772 1063.1 178.611 1063.35 178.377 1063.53C178.143 1063.71 177.851 1063.81 177.55 1063.81L158.202 1063.52C156.655 1063.5 155.877 1062.74 155.866 1061.24L155.454 1018.31C155.453 1018.12 155.394 1017.93 155.284 1017.78C155.174 1017.62 155.019 1017.51 154.838 1017.44C154.657 1017.37 154.46 1017.35 154.27 1017.39C154.081 1017.44 153.909 1017.53 153.776 1017.67C153.217 1018.24 152.641 1018.94 152.049 1019.77C145.435 1028.97 139.134 1038.06 131.862 1046.83C131.701 1047.02 131.496 1047.18 131.262 1047.28C131.029 1047.39 130.774 1047.44 130.515 1047.44C130.257 1047.43 130.002 1047.37 129.771 1047.26C129.54 1047.14 129.337 1046.98 129.18 1046.78C122.797 1038.66 116.907 1030.66 111.51 1022.79C110.128 1020.79 108.439 1019.23 106.443 1018.1C106.311 1018.02 106.159 1017.98 106.005 1017.98C105.85 1017.98 105.698 1018.02 105.565 1018.1C105.431 1018.18 105.322 1018.29 105.248 1018.43C105.173 1018.56 105.137 1018.71 105.143 1018.86ZM223.139 1063.87L201.29 1063.55C200.964 1063.55 200.644 1063.47 200.358 1063.32C200.071 1063.16 199.828 1062.95 199.649 1062.68C199.471 1062.42 199.362 1062.11 199.332 1061.8C199.303 1061.48 199.354 1061.17 199.481 1060.87L237.584 972.931C237.737 972.58 237.993 972.281 238.321 972.071C238.649 971.861 239.034 971.75 239.427 971.751L261.242 971.831C261.628 971.834 262.004 971.946 262.326 972.153C262.647 972.359 262.899 972.652 263.052 972.995L302.225 1061.15C302.357 1061.44 302.411 1061.76 302.38 1062.09C302.35 1062.41 302.238 1062.72 302.053 1062.98C301.868 1063.25 301.617 1063.47 301.322 1063.62C301.027 1063.77 300.699 1063.85 300.366 1063.84L278.238 1063.46C277.848 1063.45 277.47 1063.34 277.148 1063.12C276.826 1062.91 276.576 1062.61 276.428 1062.26L270.703 1048.61C270.552 1048.26 270.297 1047.96 269.969 1047.74C269.641 1047.53 269.255 1047.42 268.86 1047.42L232.977 1047.28C232.583 1047.27 232.197 1047.39 231.868 1047.6C231.54 1047.81 231.285 1048.12 231.135 1048.47L225.015 1062.68C224.862 1063.04 224.602 1063.34 224.267 1063.55C223.933 1063.77 223.539 1063.88 223.139 1063.87ZM239.443 1025.56C239.367 1025.74 239.339 1025.94 239.359 1026.13C239.38 1026.32 239.449 1026.51 239.562 1026.67C239.674 1026.83 239.826 1026.96 240.003 1027.05C240.18 1027.14 240.378 1027.19 240.578 1027.19L260.436 1026.93C260.638 1026.93 260.836 1026.88 261.013 1026.78C261.19 1026.69 261.34 1026.56 261.449 1026.39C261.559 1026.23 261.624 1026.04 261.64 1025.84C261.655 1025.65 261.621 1025.45 261.539 1025.27L251.289 1002.76C251.194 1002.55 251.035 1002.36 250.833 1002.23C250.63 1002.11 250.393 1002.04 250.151 1002.04C249.909 1002.05 249.674 1002.12 249.475 1002.25C249.276 1002.39 249.123 1002.57 249.035 1002.79L239.443 1025.56ZM351.22 1036.77C350.485 1036.81 349.794 1037.12 349.291 1037.64C348.788 1038.16 348.512 1038.85 348.522 1039.56L348.703 1061.4C348.705 1061.72 348.641 1062.04 348.515 1062.34C348.389 1062.64 348.203 1062.9 347.968 1063.13C347.734 1063.36 347.455 1063.53 347.149 1063.65C346.843 1063.77 346.515 1063.83 346.186 1063.82L327.282 1063.54C325.472 1063.52 324.567 1062.63 324.567 1060.87L324.633 973.744C324.633 972.607 325.22 972.028 326.394 972.006C338.853 971.762 350.99 971.629 362.802 971.608C369.932 971.608 376.376 972.187 382.134 973.346C394.95 975.928 403.851 988.205 405.167 1000.42C406.582 1013.54 400.577 1022.5 390.409 1030.25C390.005 1030.56 389.734 1031 389.649 1031.49C389.564 1031.98 389.67 1032.49 389.949 1032.91L409.362 1062.25C409.475 1062.42 409.538 1062.62 409.544 1062.83C409.55 1063.04 409.499 1063.24 409.396 1063.42C409.293 1063.6 409.142 1063.75 408.96 1063.85C408.777 1063.95 408.57 1064 408.359 1064L385.293 1063.63C384.462 1063.62 383.648 1063.4 382.922 1063.01C382.196 1062.62 381.581 1062.06 381.13 1061.38L365.665 1037.96C365.295 1037.4 364.779 1036.95 364.169 1036.64C363.559 1036.34 362.878 1036.19 362.194 1036.23L351.22 1036.77ZM348.324 996.623L348.489 1013.59C348.498 1014.31 348.8 1014.99 349.33 1015.5C349.861 1016 350.575 1016.29 351.319 1016.28L369.021 1016.14C370.653 1016.12 372.266 1015.83 373.769 1015.28C375.271 1014.73 376.633 1013.93 377.778 1012.92C378.922 1011.92 379.826 1010.73 380.438 1009.42C381.05 1008.12 381.358 1006.72 381.344 1005.31V1004.32C381.317 1001.48 379.982 998.77 377.634 996.782C375.287 994.794 372.117 993.693 368.824 993.721L351.121 993.865C350.75 993.867 350.384 993.94 350.042 994.08C349.701 994.22 349.391 994.424 349.131 994.68C348.871 994.936 348.666 995.24 348.527 995.574C348.389 995.907 348.32 996.264 348.324 996.623ZM459.065 1006.24C461.215 1004.27 463.386 1002.05 465.58 999.588C475.747 988.173 482.789 980.116 486.705 975.418C488.602 973.144 490.894 971.974 493.582 971.911C501.742 971.719 509.732 971.677 517.553 971.783C517.724 971.784 517.891 971.833 518.034 971.923C518.178 972.014 518.291 972.143 518.36 972.294C518.43 972.446 518.453 972.614 518.426 972.778C518.4 972.941 518.325 973.094 518.211 973.218L485.685 1010.21C485.278 1010.67 485.046 1011.25 485.025 1011.86C485.004 1012.47 485.196 1013.07 485.569 1013.55L522.521 1062.04C522.643 1062.19 522.719 1062.38 522.738 1062.57C522.758 1062.77 522.721 1062.96 522.632 1063.14C522.544 1063.32 522.406 1063.46 522.235 1063.57C522.065 1063.67 521.867 1063.73 521.666 1063.73C514.328 1063.84 506.892 1063.87 499.356 1063.82C496.099 1063.81 493.746 1062.96 491.854 1060.14C484.363 1048.99 476.318 1038.28 467.719 1028C467.17 1027.34 466.616 1027.34 466.057 1027.98C461.697 1032.93 456.498 1038.81 456.975 1045.87C457.315 1051.05 457.392 1056.37 457.206 1061.85C457.188 1062.35 456.967 1062.84 456.589 1063.19C456.211 1063.54 455.706 1063.73 455.182 1063.73L436.081 1063.57C435.298 1063.57 434.549 1063.26 433.998 1062.72C433.446 1062.19 433.136 1061.46 433.136 1060.7L433.169 973.951C433.169 972.517 433.909 971.81 435.39 971.831L455.495 972.086C455.754 972.088 456.01 972.14 456.249 972.238C456.488 972.336 456.704 972.479 456.886 972.658C457.068 972.837 457.211 973.049 457.308 973.282C457.406 973.515 457.455 973.764 457.452 974.015L457.206 1005.44C457.201 1005.65 457.261 1005.86 457.378 1006.03C457.495 1006.21 457.663 1006.35 457.862 1006.44C458.06 1006.52 458.28 1006.55 458.494 1006.51C458.709 1006.48 458.907 1006.38 459.065 1006.24ZM566.909 995.666L566.959 1005.92C566.959 1007.62 567.836 1008.45 569.591 1008.42L600.933 1007.96C602.611 1007.94 603.45 1008.75 603.45 1010.38L603.434 1027.51C603.434 1027.66 603.402 1027.81 603.341 1027.95C603.28 1028.09 603.19 1028.22 603.077 1028.33C602.964 1028.44 602.83 1028.52 602.682 1028.58C602.534 1028.64 602.376 1028.67 602.216 1028.67L568.653 1028.53C567.557 1028.53 567.014 1029.06 567.025 1030.14L567.123 1040.74C567.125 1041.02 567.184 1041.29 567.296 1041.55C567.409 1041.8 567.572 1042.03 567.777 1042.23C567.982 1042.42 568.224 1042.57 568.491 1042.68C568.757 1042.78 569.041 1042.83 569.328 1042.83L612.68 1042.25C612.982 1042.25 613.282 1042.3 613.562 1042.41C613.843 1042.52 614.098 1042.69 614.312 1042.9C614.527 1043.1 614.697 1043.35 614.812 1043.62C614.927 1043.9 614.985 1044.19 614.983 1044.49L614.769 1062.12C614.765 1062.56 614.583 1062.97 614.262 1063.28C613.942 1063.59 613.509 1063.76 613.058 1063.76C591.155 1063.81 569.981 1063.82 549.536 1063.78C547.704 1063.78 545.461 1063.55 542.807 1063.11C542.193 1063 541.885 1062.64 541.885 1062.04L541.803 973.282C541.803 972.867 541.973 972.47 542.276 972.177C542.578 971.884 542.988 971.719 543.416 971.719L612.614 971.767C612.848 971.767 613.08 971.812 613.295 971.899C613.511 971.986 613.707 972.113 613.87 972.274C614.034 972.434 614.163 972.624 614.25 972.833C614.336 973.041 614.379 973.264 614.374 973.489L614.144 991.473C614.135 991.955 613.933 992.415 613.579 992.755C613.226 993.094 612.75 993.287 612.252 993.291L569.262 993.371C567.683 993.371 566.898 994.136 566.909 995.666ZM685.267 993.705C685.093 993.707 684.928 993.822 684.808 994.025C684.688 994.228 684.622 994.503 684.626 994.789C684.746 1015.41 684.719 1036.02 684.543 1056.63C684.521 1058.73 684.291 1060.8 683.852 1062.85C683.721 1063.5 683.309 1063.82 682.618 1063.82L661.987 1063.71C661.682 1063.71 661.389 1063.6 661.166 1063.4C660.943 1063.2 660.807 1062.92 660.786 1062.63C658.976 1040.72 660.062 1017.59 660.803 995.618C660.811 995.372 660.769 995.126 660.678 994.895C660.587 994.664 660.45 994.453 660.273 994.275C660.097 994.097 659.885 993.954 659.651 993.857C659.417 993.759 659.165 993.707 658.911 993.705L634.66 993.53C634.139 993.527 633.639 993.331 633.261 992.982C632.882 992.632 632.653 992.156 632.62 991.649L631.666 974.876C631.545 972.782 632.565 971.741 634.726 971.751L710.357 971.847C711.19 971.847 711.893 972.15 712.463 972.756C713.099 973.425 713.406 974.547 713.384 976.12C713.34 980.913 713.225 985.989 713.039 991.346C713.026 991.818 712.824 992.268 712.474 992.6C712.125 992.933 711.655 993.123 711.163 993.131L685.267 993.705ZM813.101 1035.45C812.224 1034.4 811.341 1034.39 810.453 1035.41C803.301 1043.62 796.907 1051.85 791.269 1060.09C789.843 1062.17 787.694 1063.26 784.82 1063.38C776.572 1063.72 768.335 1063.64 760.109 1063.15C759.997 1063.15 759.889 1063.11 759.797 1063.05C759.704 1062.99 759.631 1062.91 759.585 1062.81C759.54 1062.71 759.523 1062.6 759.537 1062.49C759.55 1062.38 759.595 1062.28 759.664 1062.2L796.337 1017.78C797.115 1016.84 797.126 1015.9 796.369 1014.94L762.379 972.676C761.951 972.145 762.083 971.868 762.774 971.847C770.978 971.581 779.435 971.587 788.143 971.863C790.074 971.927 792.212 973.532 794.56 976.678C799.528 983.363 804.711 990.113 810.107 996.926C810.252 997.109 810.438 997.258 810.651 997.36C810.864 997.463 811.099 997.517 811.337 997.519C811.575 997.52 811.81 997.469 812.025 997.369C812.239 997.269 812.428 997.123 812.575 996.942C818.695 989.395 824.821 981.817 830.952 974.207C832.279 972.559 834.583 971.73 837.862 971.719C845.331 971.698 852.636 971.767 859.777 971.927C859.925 971.932 860.069 971.976 860.193 972.056C860.317 972.135 860.415 972.246 860.478 972.376C860.541 972.506 860.566 972.651 860.549 972.794C860.533 972.937 860.476 973.072 860.385 973.186L827.941 1013.38C827.332 1014.14 827.004 1015.07 827.01 1016.04C827.016 1017 827.356 1017.93 827.974 1018.69L863.742 1062.2C864.191 1062.75 864.054 1063.05 863.33 1063.11C852.417 1063.88 843.385 1063.86 836.233 1063.04C834.632 1062.86 833.179 1061.84 831.873 1059.97C825.72 1051.23 819.463 1043.06 813.101 1035.45Z" fill="#182E42"/>
</svg>
